<svg xmlns="http://www.w3.org/2000/svg" viewBox="0 0 32 32">
  <rect width="32" height="32" rx="6" fill="#1B2535"/>
  <g transform="translate(4, 4) scale(0.015)">
    <path fill="#FFFFFF" fill-rule="evenodd" d="M823.348,225.299l9.324,192.897l192.745,13.47l-0.186,46.773l-189.699,18.276l4.019,103.302c72.546,5.55 140.455,32.262 177.032,100.73c52.705,98.047 39.1,203.262 -20.441,299.092c94.823,-60.175 165.043,-150.642 127.822,-342.049c-2.979,-15.298 -3.605,-31.399 0.456,-44.176c-48.371,-8.495 -88.113,25.341 -100.044,73.434c-8.986,-47.898 17.744,-92.133 65.989,-101.187c33.962,-6.362 54.506,0.11 86.963,8.699c-14.02,8.308 -23.742,23.149 -17.15,52.154c56.52,248.901 -59.567,354.928 -266.695,446.105c77.326,-97.921 154.72,-243.91 93.114,-365.842c-36.687,-68.688 -88.139,-91.914 -145.802,-94.96l2.167,55.75c40.494,6.574 77.038,23.844 109.343,56.842c-41.604,-21.381 -74.001,-28.285 -108.202,-27.338l2.032,52.222c52.619,2.632 100.873,22.973 116.492,66.987c-13.885,-8.342 -43.347,-38.066 -115.198,-33.777l9.832,224.584c5.685,116.874 82.386,153.688 154.736,107.287c113.228,-72.63 154.654,-128.169 209.27,-255.941c22.117,59.711 24.588,125.513 12.624,188.244c-8.123,-13.403 -25.917,-29.91 -36.163,-35.326c-105.248,230 -270.52,203.575 -397.724,343.15c-123.313,-135.581 -293.035,-114.36 -397.732,-343.15c-10.247,5.416 -28.041,21.923 -36.163,35.326c-11.964,-62.731 -9.493,-128.533 12.624,-188.244c54.616,127.772 96.042,183.311 209.269,255.941c72.351,46.401 149.051,9.587 154.737,-107.287c3.054,-78.73 6.109,-128.88 9.163,-207.602c-103.386,17.81 -232.021,14.181 -277.829,-53.635c81.21,38.32 177.218,34.267 279.353,14.452l1.946,-49.887c-72.521,13.96 -260.307,41.011 -323.723,-73.418c101.973,72.157 212.205,41.629 325.406,30.037l1.913,-49.193c-16.271,2.674 -32.711,5.957 -49.143,9.384c-121.552,25.324 -287.678,7.225 -304.693,-117.602c60.844,102.583 198.667,98.919 297.662,79.899c18.463,-3.545 37.855,-6.49 57.604,-8.411l4.061,-104.596l-189.699,-18.276l-0.186,-46.773l192.745,-13.47l9.324,-192.897l46.705,-0Z"/>
  </g>
</svg>
