<svg xmlns="http://www.w3.org/2000/svg" width="512" height="512" viewBox="0 0 512 512">
  <!-- Background -->
  <rect width="512" height="512" rx="112" fill="#0F1117"/>
  <!-- Bolt icon, centered, scaled up from 48x46 source -->
  <g transform="translate(108, 113) scale(6.17)">
    <path fill="#863bff" d="M25.946 44.938c-.664.845-2.021.375-2.021-.698V33.937a2.26 2.26 0 0 0-2.262-2.262H10.287c-.92 0-1.456-1.04-.92-1.788l7.48-10.471c1.07-1.497 0-3.578-1.842-3.578H1.237c-.92 0-1.456-1.04-.92-1.788L10.013.474c.214-.297.556-.474.92-.474h28.894c.92 0 1.456 1.04.92 1.788l-7.48 10.471c-1.07 1.498 0 3.579 1.842 3.579h11.377c.943 0 1.473 1.088.89 1.83L25.947 44.94z"/>
  </g>
  <!-- "SED" wordmark below bolt -->
  <text x="256" y="440" font-family="system-ui, -apple-system, sans-serif" font-size="72" font-weight="700" fill="#F0F2F8" text-anchor="middle" letter-spacing="12">SED</text>
</svg>
